<?xml version="1.0" encoding="iso-8859-1"?>
<!-- Generator: Adobe Illustrator 19.0.0, SVG Export Plug-In . SVG Version: 6.00 Build 0)  -->
<svg version="1.1" id="Layer_1" xmlns="http://www.w3.org/2000/svg" xmlns:xlink="http://www.w3.org/1999/xlink" x="0px" y="0px"
	 viewBox="0 0 508 508" style="enable-background:new 0 0 508 508;" xml:space="preserve">
<circle style="fill:#90DFAA;" cx="254" cy="254" r="254"/>
<rect x="96.8" y="148" style="fill:#FFFFFF;" width="283.6" height="160.4"/>
<path style="fill:#4CDBC4;" d="M348.4,294.4H129.2c0-8.8-7.2-16-16-16V177.6c8.8,0,16-7.2,16-16h219.2c0,8.8,7.2,16,16,16v101.2
	C355.6,278.4,348.4,285.6,348.4,294.4z"/>
<g>
	<ellipse style="fill:#2C9984;" cx="155.6" cy="228" rx="10.4" ry="14.4"/>
	<ellipse style="fill:#2C9984;" cx="322" cy="228" rx="10.4" ry="14.4"/>
	<ellipse style="fill:#2C9984;" cx="238.8" cy="228" rx="34.8" ry="44.8"/>
</g>
<circle style="fill:#F9B54C;" cx="359.6" cy="308.4" r="67.6"/>
<path style="fill:#FFFFFF;" d="M359.6,359.2c-28,0-50.8-22.8-50.8-50.8s22.8-50.8,50.8-50.8s50.8,22.8,50.8,50.8
	C410.4,336.4,387.6,359.2,359.6,359.2z"/>
<path style="fill:#F9B54C;" d="M362,333.6v8h-5.2V334c-4.8,0-9.6-1.2-13.6-3.2v-10c1.6,1.2,3.6,2,6.4,3.2c2.8,0.8,5.2,1.6,7.6,1.6
	v-13.2c-5.6-2-9.6-4.4-11.6-6.8s-3.2-5.6-3.2-8.8c0-3.6,1.2-7.2,4-9.6c2.8-2.8,6.4-4.4,10.8-4.8v-6.8h4.8v6.4
	c5.2,0.4,8.8,1.2,11.6,2.4v9.6c-3.2-2-7.2-3.2-11.6-3.6V304c5.2,2,9.2,4,11.2,6.4c2.4,2.4,3.6,5.6,3.6,8.8c0,4-1.2,7.2-4,9.6
	C370.8,331.6,366.8,333.2,362,333.6z M356.8,302v-11.6c-3.2,0.8-5.2,2.4-5.2,5.2C352,298,353.6,300.4,356.8,302z M362,314v10.8
	c3.6-0.4,5.2-2.4,5.2-5.2C367.2,317.6,365.6,315.6,362,314z"/>
<g>
</g>
<g>
</g>
<g>
</g>
<g>
</g>
<g>
</g>
<g>
</g>
<g>
</g>
<g>
</g>
<g>
</g>
<g>
</g>
<g>
</g>
<g>
</g>
<g>
</g>
<g>
</g>
<g>
</g>
</svg>
